<?xml version="1.0" encoding="utf-8"?>
<!-- Generator: Adobe Illustrator 25.3.0, SVG Export Plug-In . SVG Version: 6.00 Build 0)  -->
<svg version="1.1" id="Ebene_1" xmlns="http://www.w3.org/2000/svg" xmlns:xlink="http://www.w3.org/1999/xlink" x="0px" y="0px"
	 viewBox="0 0 200 200" style="enable-background:new 0 0 200 200;" xml:space="preserve">
<style type="text/css">
	.st0{fill:#A1C861;}
</style>
<g id="XMLID_310_">
</g>
<path class="st0" d="M99.6,4.3c-53.3,0-96.5,43.2-96.5,96.5s43.2,96.5,96.5,96.5s96.5-43.2,96.5-96.5C196.1,47.5,152.8,4.3,99.6,4.3
	z M73.8,147.5H52.6V79h21.2V147.5z M63.1,70c-6.9,0-12.5-5.7-12.5-12.6c0-7,5.6-12.6,12.5-12.6s12.5,5.7,12.5,12.6
	C75.6,64.4,70,70,63.1,70z M153.2,147.5h-21.1v-35.9c0-9.9-3.7-15.4-11.5-15.4c-8.5,0-12.9,5.7-12.9,15.4v35.9H87.4V79h20.3v9.2
	c0,0,6.1-11.3,20.6-11.3c14.5,0,24.9,8.9,24.9,27.2L153.2,147.5L153.2,147.5z"/>
</svg>
