<?xml version="1.0" encoding="utf-8"?>
<!-- Generator: Adobe Illustrator 25.3.0, SVG Export Plug-In . SVG Version: 6.00 Build 0)  -->
<svg version="1.1" id="Ebene_1" xmlns="http://www.w3.org/2000/svg" xmlns:xlink="http://www.w3.org/1999/xlink" x="0px" y="0px"
	 viewBox="0 0 1024 1024" style="enable-background:new 0 0 1024 1024;" xml:space="preserve">
<style type="text/css">
	.st0{fill:#A1C861;}
	.st1{fill:#FFFFFF;}
</style>
<g id="icomoon-ignore">
</g>
<path class="st0" d="M1001,511c0,270-218.9,489-489,489S23,781,23,511S242,22,512,22S1001,240.9,1001,511L1001,511z"/>
<path class="st1" d="M659.5,272.4H366.1c-50.7,0-91.6,41-91.6,91.6v293.4c0,50.7,41,91.6,91.6,91.6h293.4c50.7,0,91.6-41,91.6-91.6
	V364C751.1,313.3,710.1,272.4,659.5,272.4L659.5,272.4z M685.6,327.2h10.2v81.4h-81.4v-81.4H685.6z M445.4,461.8
	c14.3-20.5,41-34.8,67.1-34.8c26.1,0,52.7,14.3,67.1,34.8c10.2,14.3,16.4,30.7,16.4,48.6c0,46.6-38.9,83.5-83.5,83.5
	c-45.1,0-83.5-36.9-83.5-83.5C429.1,492.5,435.2,476.2,445.4,461.8L445.4,461.8z M704,657.4c0,24.6-20.5,45.1-45.1,45.1H366.1
	c-24.6,0-45.1-20.5-45.1-45.1V461.8h71.2c-6.1,14.3-10.2,32.8-10.2,48.6c0,71.2,58.9,130.6,130.6,130.6s130.6-58.9,130.6-130.6
	c0-16.4-4.1-34.8-10.2-48.6H704V657.4L704,657.4z"/>
</svg>
